<svg width="88" height="87" viewBox="0 0 88 87" fill="none" xmlns="http://www.w3.org/2000/svg">
<path opacity="0.8" d="M4.92188 56.4844C4.27083 56.6927 3.64583 56.6406 3.04688 56.3281C2.44792 56.0156 2.03125 55.4818 1.79688 54.7266C1.04167 51.9922 0.546875 49.362 0.3125 46.8359C0.104167 44.2839 0.078125 41.888 0.234375 39.6484C0.3125 38.9193 0.585938 38.3464 1.05469 37.9297C1.52344 37.513 2.14844 37.3307 2.92969 37.3828C3.55469 37.4349 4.0625 37.6823 4.45312 38.125C4.86979 38.5677 5.0651 39.1667 5.03906 39.9219C4.96094 42.6562 5.03906 45.0911 5.27344 47.2266C5.53385 49.3359 5.92448 51.3932 6.44531 53.3984C6.60156 54.1016 6.53646 54.7526 6.25 55.3516C5.98958 55.9245 5.54688 56.3021 4.92188 56.4844ZM3.125 32.8125C2.5 32.5781 2.03125 32.1094 1.71875 31.4062C1.43229 30.7031 1.48438 29.8307 1.875 28.7891C3.67188 24.0234 5.97656 19.8438 8.78906 16.25C11.6276 12.6562 14.8438 9.64844 18.4375 7.22656C22.0573 4.80469 25.9635 2.99479 30.1562 1.79688C34.349 0.598958 38.7109 0 43.2422 0C46.9922 0 50.4297 0.377604 53.5547 1.13281C56.7057 1.86198 59.7786 3.16406 62.7734 5.03906C63.3724 5.40365 63.8021 5.84635 64.0625 6.36719C64.3229 6.86198 64.2969 7.46094 63.9844 8.16406C63.6719 8.86719 63.1641 9.24479 62.4609 9.29688C61.7578 9.34896 61.0156 9.16667 60.2344 8.75C57.9167 7.47396 55.3646 6.4974 52.5781 5.82031C49.8177 5.14323 46.7057 4.80469 43.2422 4.80469C38.0599 4.80469 33.0599 5.80729 28.2422 7.8125C23.4245 9.79167 19.1276 12.7344 15.3516 16.6406C11.5755 20.5208 8.63281 25.3516 6.52344 31.1328C6.23698 31.9141 5.76823 32.4479 5.11719 32.7344C4.46615 33.0208 3.80208 33.0469 3.125 32.8125ZM85.2344 47.3438C84.5573 47.3438 84.0104 47.1094 83.5938 46.6406C83.1771 46.1458 82.9167 45.5469 82.8125 44.8438C82.1875 37.8385 80.5859 31.888 78.0078 26.9922C75.4297 22.0964 72.1745 17.7865 68.2422 14.0625C67.6432 13.5156 67.3307 12.9297 67.3047 12.3047C67.2786 11.6536 67.474 11.0938 67.8906 10.625C68.2812 10.1562 68.8021 9.88281 69.4531 9.80469C70.1302 9.72656 70.7682 9.96094 71.3672 10.5078C74.388 13.2161 76.9922 16.1849 79.1797 19.4141C81.3932 22.6432 83.1771 26.3281 84.5312 30.4688C85.9115 34.6094 86.888 39.362 87.4609 44.7266C87.513 45.4557 87.3177 46.0807 86.875 46.6016C86.4583 47.0964 85.9115 47.3438 85.2344 47.3438ZM9.29688 67.8516C8.93229 67.3568 8.78906 66.7839 8.86719 66.1328C8.97135 65.4818 9.28385 64.9349 9.80469 64.4922C10.6641 63.6849 11.3281 62.6953 11.7969 61.5234C12.2917 60.3516 12.5391 59.0885 12.5391 57.7344C12.5391 56.3802 12.3307 54.974 11.9141 53.5156C11.4974 52.0312 11.0807 50.4297 10.6641 48.7109C10.2734 46.9661 10.0781 45.013 10.0781 42.8516C10.0781 38.3464 10.9375 34.1016 12.6562 30.1172C14.375 26.1328 16.7448 22.6302 19.7656 19.6094C22.8125 16.5885 26.3281 14.2188 30.3125 12.5C34.2969 10.7552 38.5417 9.88281 43.0469 9.88281C48.4115 9.88281 53.2552 10.8984 57.5781 12.9297C61.9271 14.9609 65.651 17.8516 68.75 21.6016C71.849 25.3516 74.2318 29.8177 75.8984 35C77.5651 40.1823 78.3984 45.9375 78.3984 52.2656C78.3984 57.0573 78.0339 61.1719 77.3047 64.6094C76.6016 68.0208 75.8724 70.7552 75.1172 72.8125C74.8828 73.4896 74.4141 73.9453 73.7109 74.1797C73.0078 74.4141 72.3568 74.401 71.7578 74.1406C71.2109 73.8542 70.8203 73.3984 70.5859 72.7734C70.3776 72.1484 70.4036 71.4974 70.6641 70.8203C71.3932 69.1016 72.0573 66.6927 72.6562 63.5938C73.2812 60.4948 73.5938 56.7318 73.5938 52.3047C73.5677 44.8047 72.2917 38.2292 69.7656 32.5781C67.2656 26.9271 63.737 22.526 59.1797 19.375C54.6224 16.224 49.2448 14.6484 43.0469 14.6484C39.2188 14.6484 35.599 15.3906 32.1875 16.875C28.776 18.3594 25.7682 20.4036 23.1641 23.0078C20.5859 25.612 18.5547 28.6068 17.0703 31.9922C15.612 35.3776 14.8828 38.9974 14.8828 42.8516C14.8828 45.0911 15.0781 46.9792 15.4688 48.5156C15.8594 50.0521 16.25 51.5365 16.6406 52.9688C17.0312 54.375 17.2266 55.9766 17.2266 57.7734C17.2266 59.8307 16.862 61.7969 16.1328 63.6719C15.4036 65.5208 14.3359 67.0443 12.9297 68.2422C12.3307 68.763 11.6667 68.9714 10.9375 68.8672C10.2344 68.763 9.6875 68.4245 9.29688 67.8516ZM18.8281 75.2344C18.0729 75.651 17.3828 75.7422 16.7578 75.5078C16.1328 75.2995 15.6901 74.9089 15.4297 74.3359C15.1953 73.8411 15.1562 73.2812 15.3125 72.6562C15.4948 72.0573 15.9505 71.4974 16.6797 70.9766C18.0859 70.013 19.2578 68.8932 20.1953 67.6172C21.1328 66.3411 21.862 64.8698 22.3828 63.2031C22.6172 62.5 23.0208 61.9922 23.5938 61.6797C24.1667 61.3672 24.7526 61.3151 25.3516 61.5234C26.0286 61.7578 26.4974 62.1745 26.7578 62.7734C27.0182 63.3724 27.0573 63.9844 26.875 64.6094C26.5104 65.9635 25.8854 67.3698 25 68.8281C24.1146 70.2604 23.112 71.5625 21.9922 72.7344C20.8984 73.9062 19.8438 74.7396 18.8281 75.2344ZM27.3047 53.3984C27.513 54.1016 27.5 54.7656 27.2656 55.3906C27.0573 56.0156 26.6406 56.4583 26.0156 56.7188C25.2604 57.0052 24.5703 57.0182 23.9453 56.7578C23.3203 56.4714 22.8646 55.9635 22.5781 55.2344C21.9271 53.6198 21.3281 51.7969 20.7812 49.7656C20.2344 47.7344 19.9609 45.4948 19.9609 43.0469C19.9609 39.7917 20.5599 36.7578 21.7578 33.9453C22.9557 31.1068 24.6094 28.6328 26.7188 26.5234C28.8542 24.388 31.3281 22.7214 34.1406 21.5234C36.9531 20.3255 39.987 19.7266 43.2422 19.7266C45.2214 19.7266 47.1224 19.974 48.9453 20.4688C50.7943 20.9635 52.3828 21.5885 53.7109 22.3438C54.4141 22.7604 54.8568 23.3073 55.0391 23.9844C55.2474 24.6354 55.1823 25.2604 54.8438 25.8594C54.6094 26.3542 54.2057 26.6797 53.6328 26.8359C53.0859 26.9922 52.487 26.9141 51.8359 26.6016C50.6901 26.0807 49.7266 25.6771 48.9453 25.3906C48.1641 25.0781 47.3438 24.8698 46.4844 24.7656C45.651 24.6354 44.5703 24.5703 43.2422 24.5703C39.8047 24.5703 36.6927 25.3906 33.9062 27.0312C31.1198 28.6719 28.9062 30.8984 27.2656 33.7109C25.625 36.4974 24.8047 39.6094 24.8047 43.0469C24.8047 45.2604 25.0911 47.2135 25.6641 48.9062C26.237 50.5729 26.7839 52.0703 27.3047 53.3984ZM58.2031 32.0312C57.7344 31.3021 57.5651 30.5859 57.6953 29.8828C57.8516 29.1797 58.2422 28.6589 58.8672 28.3203C59.4661 28.0078 60.1042 27.9557 60.7812 28.1641C61.4583 28.3724 62.0052 28.8151 62.4219 29.4922C63.5938 31.3932 64.6354 33.4766 65.5469 35.7422C66.4844 38.0078 67.2135 40.651 67.7344 43.6719C68.2552 46.6667 68.5156 50.1823 68.5156 54.2188C68.5156 59.6875 67.7865 64.8828 66.3281 69.8047C64.8698 74.7266 62.9297 78.8281 60.5078 82.1094C60.0651 82.6823 59.4792 82.9948 58.75 83.0469C58.0208 83.099 57.3958 82.8776 56.875 82.3828C56.4062 81.9401 56.1719 81.3802 56.1719 80.7031C56.1979 80.0521 56.4062 79.4792 56.7969 78.9844C58.9323 76.3281 60.625 72.7995 61.875 68.3984C63.151 63.9974 63.7891 59.3229 63.7891 54.375C63.7891 49.7135 63.3203 45.5208 62.3828 41.7969C61.4453 38.0729 60.0521 34.8177 58.2031 32.0312ZM27.1484 80.4688C26.5755 80.9375 25.9375 81.1458 25.2344 81.0938C24.5573 81.0417 23.9974 80.7031 23.5547 80.0781C23.1901 79.5312 23.0599 78.9453 23.1641 78.3203C23.2682 77.7214 23.5938 77.1745 24.1406 76.6797C26.8229 74.5182 28.8672 71.7839 30.2734 68.4766C31.7057 65.1432 32.4089 61.5234 32.3828 57.6172C32.3568 55.7943 32.1354 53.9844 31.7188 52.1875C31.3281 50.3906 30.9375 48.6458 30.5469 46.9531C30.1562 45.2604 29.9609 43.6589 29.9609 42.1484C29.9609 39.6745 30.5339 37.5 31.6797 35.625C32.8516 33.75 34.4271 32.2917 36.4062 31.25C38.4115 30.2083 40.6641 29.6875 43.1641 29.6875C46.8099 29.6875 49.7266 30.7292 51.9141 32.8125C54.1016 34.8698 55.6901 37.7083 56.6797 41.3281C57.6693 44.9219 58.1641 49.0234 58.1641 53.6328C58.1901 58.112 57.6953 62.4089 56.6797 66.5234C55.6641 70.612 54.2839 74.2839 52.5391 77.5391C50.8203 80.7943 48.9193 83.3724 46.8359 85.2734C46.263 85.7943 45.612 86.0026 44.8828 85.8984C44.1797 85.8203 43.6328 85.4948 43.2422 84.9219C42.9036 84.375 42.7865 83.8021 42.8906 83.2031C42.9948 82.6042 43.2943 82.0964 43.7891 81.6797C45.7682 79.9609 47.526 77.6953 49.0625 74.8828C50.599 72.0964 51.7839 68.9193 52.6172 65.3516C53.4505 61.7839 53.8021 57.9818 53.6719 53.9453C53.5677 50.2995 53.1641 47.0052 52.4609 44.0625C51.7839 41.1198 50.6901 38.7891 49.1797 37.0703C47.6953 35.3516 45.6901 34.4922 43.1641 34.4922C40.638 34.4922 38.5938 35.2344 37.0312 36.7188C35.4688 38.1771 34.6875 40.1302 34.6875 42.5781C34.6875 43.8281 34.8828 45.1693 35.2734 46.6016C35.6901 48.0339 36.1068 49.6484 36.5234 51.4453C36.9661 53.2161 37.2005 55.2734 37.2266 57.6172C37.2526 62.2266 36.3932 66.5365 34.6484 70.5469C32.9036 74.5312 30.4036 77.8385 27.1484 80.4688ZM36.4062 83.6328C35.8073 84.0755 35.1562 84.2448 34.4531 84.1406C33.75 84.0625 33.2161 83.724 32.8516 83.125C32.487 82.5781 32.3698 81.9792 32.5 81.3281C32.6302 80.7031 32.9688 80.1823 33.5156 79.7656C34.8177 78.6979 36.0547 77.3698 37.2266 75.7812C38.3984 74.1927 39.4531 72.1875 40.3906 69.7656C40.625 69.1667 41.0156 68.724 41.5625 68.4375C42.1354 68.125 42.7865 68.099 43.5156 68.3594C44.1927 68.5677 44.6224 68.9974 44.8047 69.6484C44.987 70.2734 44.987 70.8594 44.8047 71.4062C44.0234 73.9062 42.8125 76.276 41.1719 78.5156C39.5573 80.7812 37.9688 82.487 36.4062 83.6328ZM47.1875 61.7578C47.0573 62.513 46.7057 63.0859 46.1328 63.4766C45.5859 63.8672 44.9609 63.9974 44.2578 63.8672C43.5286 63.737 43.0078 63.4115 42.6953 62.8906C42.4089 62.3438 42.3307 61.7448 42.4609 61.0938C42.7734 59.4271 42.9297 57.7214 42.9297 55.9766C42.9557 54.2057 42.8255 52.3958 42.5391 50.5469C42.2786 48.6979 41.849 46.8229 41.25 44.9219C41.0417 44.1927 41.0938 43.5547 41.4062 43.0078C41.7188 42.4349 42.1875 42.0443 42.8125 41.8359C43.4635 41.6276 44.0755 41.6927 44.6484 42.0312C45.2214 42.3438 45.638 42.8906 45.8984 43.6719C46.5495 45.651 47.0312 47.6953 47.3438 49.8047C47.6562 51.888 47.7995 53.9583 47.7734 56.0156C47.7474 58.0469 47.5521 59.9609 47.1875 61.7578Z" fill="#1D70B8"/>
</svg>
