<svg width="40" height="40" viewBox="0 0 40 40" fill="none" xmlns="http://www.w3.org/2000/svg">
<rect x="0.5" y="0.5" width="39" height="39" rx="19.5" stroke="#484949"/>
<g clip-path="url(#clip0_3045_12157)">
<path d="M20.1387 25.0411C19.8913 25.0411 19.7025 24.9662 19.5723 24.8165C19.4486 24.6667 19.3867 24.4747 19.3867 24.2403C19.3867 24.1101 19.3867 23.9799 19.3867 23.8497C19.3867 23.7194 19.3867 23.5892 19.3867 23.459C19.3867 22.8991 19.4844 22.3978 19.6797 21.9551C19.8815 21.5124 20.1712 21.099 20.5488 20.7149C20.9329 20.3308 21.4017 19.9401 21.9551 19.543C22.4368 19.198 22.8438 18.8594 23.1758 18.5274C23.5143 18.1954 23.7715 17.8471 23.9473 17.4825C24.123 17.1114 24.2109 16.6947 24.2109 16.2325C24.2109 15.601 24.0449 15.0476 23.7129 14.5723C23.3874 14.0905 22.9479 13.7194 22.3945 13.459C21.8411 13.1986 21.2194 13.0684 20.5293 13.0684C19.9303 13.0684 19.3802 13.1791 18.8789 13.4004C18.3841 13.6218 17.9642 13.9571 17.6191 14.4063C17.2806 14.849 17.0397 15.4024 16.8965 16.0665C16.8444 16.2553 16.7565 16.4017 16.6328 16.5059C16.5156 16.6101 16.3594 16.6622 16.1641 16.6622C15.9492 16.6622 15.7832 16.5971 15.666 16.4668C15.5488 16.3366 15.4902 16.1674 15.4902 15.959C15.4902 15.7963 15.5065 15.6172 15.5391 15.4219C15.5781 15.2266 15.6432 15.0183 15.7344 14.7969C15.9818 14.1589 16.3431 13.612 16.8184 13.1563C17.3001 12.6941 17.86 12.3392 18.498 12.0918C19.1426 11.8379 19.8359 11.711 20.5781 11.711C21.5352 11.711 22.401 11.8965 23.1758 12.2676C23.9505 12.6322 24.5658 13.153 25.0215 13.8301C25.4772 14.5072 25.7051 15.308 25.7051 16.2325C25.7051 17.1309 25.474 17.9154 25.0117 18.586C24.5495 19.25 23.8757 19.8881 22.9902 20.5C22.4434 20.8842 22.0169 21.226 21.7109 21.5254C21.4115 21.8184 21.1966 22.1276 21.0664 22.4532C20.9427 22.7787 20.8809 23.1693 20.8809 23.625C20.8809 23.7227 20.8809 23.8236 20.8809 23.9278C20.8809 24.0254 20.8809 24.1263 20.8809 24.2305C20.8809 24.4584 20.819 24.6504 20.6953 24.8067C20.5716 24.9629 20.3861 25.0411 20.1387 25.0411ZM20.1582 30.2168C19.9564 30.2168 19.7708 30.1648 19.6016 30.0606C19.4323 29.9629 19.2956 29.8295 19.1914 29.6602C19.0938 29.4909 19.0449 29.3021 19.0449 29.0938C19.0449 28.892 19.0938 28.7064 19.1914 28.5372C19.2956 28.3679 19.4323 28.2312 19.6016 28.127C19.7708 28.0293 19.9564 27.9805 20.1582 27.9805C20.3665 27.9805 20.5553 28.0293 20.7246 28.127C20.8939 28.2312 21.0273 28.3679 21.125 28.5372C21.2292 28.7064 21.2812 28.892 21.2812 29.0938C21.2812 29.3021 21.2292 29.4909 21.125 29.6602C21.0273 29.8295 20.8939 29.9629 20.7246 30.0606C20.5553 30.1648 20.3665 30.2168 20.1582 30.2168Z" fill="white"/>
</g>
<defs>
<clipPath id="clip0_3045_12157">
<rect width="21" height="21" fill="white" transform="translate(10 9.00005)"/>
</clipPath>
</defs>
</svg>
