<svg width="94" height="94" viewBox="0 0 94 94" fill="none" xmlns="http://www.w3.org/2000/svg">
<path d="M2.97852 29.834C0.992839 29.834 0 28.8086 0 26.7578V14.209C0 9.48893 1.20443 5.94076 3.61328 3.56445C6.02214 1.18815 9.60286 0 14.3555 0H26.9043C28.9551 0 29.9805 0.992839 29.9805 2.97852C29.9805 4.99674 28.9551 6.00586 26.9043 6.00586H14.502C11.735 6.00586 9.61914 6.72201 8.1543 8.1543C6.72201 9.58659 6.00586 11.7188 6.00586 14.5508V26.7578C6.00586 28.8086 4.99674 29.834 2.97852 29.834ZM90.3809 29.834C88.3952 29.834 87.4023 28.8086 87.4023 26.7578V14.5508C87.4023 11.7188 86.6536 9.58659 85.1562 8.1543C83.6589 6.72201 81.5592 6.00586 78.8574 6.00586H66.5039C64.4531 6.00586 63.4277 4.99674 63.4277 2.97852C63.4277 0.992839 64.4531 0 66.5039 0H79.0039C83.7891 0 87.3861 1.20443 89.7949 3.61328C92.2038 5.98958 93.4082 9.52148 93.4082 14.209V26.7578C93.4082 28.8086 92.3991 29.834 90.3809 29.834ZM14.3555 93.3594C9.60286 93.3594 6.02214 92.1549 3.61328 89.7461C1.20443 87.3698 0 83.8216 0 79.1016V66.6016C0 64.5508 0.992839 63.5254 2.97852 63.5254C4.99674 63.5254 6.00586 64.5508 6.00586 66.6016V78.8086C6.00586 81.6406 6.72201 83.7728 8.1543 85.2051C9.61914 86.6374 11.735 87.3535 14.502 87.3535H26.9043C28.9551 87.3535 29.9805 88.3626 29.9805 90.3809C29.9805 92.3665 28.9551 93.3594 26.9043 93.3594H14.3555ZM66.5039 93.3594C64.4531 93.3594 63.4277 92.3665 63.4277 90.3809C63.4277 88.3626 64.4531 87.3535 66.5039 87.3535H78.8574C81.5592 87.3535 83.6589 86.6374 85.1562 85.2051C86.6536 83.7728 87.4023 81.6406 87.4023 78.8086V66.6016C87.4023 64.5508 88.3952 63.5254 90.3809 63.5254C92.3991 63.5254 93.4082 64.5508 93.4082 66.6016V79.1016C93.4082 83.8216 92.2038 87.3698 89.7949 89.7461C87.3861 92.1549 83.7891 93.3594 79.0039 93.3594H66.5039ZM28.5156 42.6758C27.7018 42.6758 27.0182 42.4154 26.4648 41.8945C25.944 41.3411 25.6836 40.6413 25.6836 39.7949V32.4219C25.6836 31.6081 25.944 30.9245 26.4648 30.3711C27.0182 29.8177 27.7018 29.541 28.5156 29.541C29.362 29.541 30.0618 29.8177 30.6152 30.3711C31.1686 30.9245 31.4453 31.6081 31.4453 32.4219V39.7949C31.4453 40.6413 31.1686 41.3411 30.6152 41.8945C30.0618 42.4154 29.362 42.6758 28.5156 42.6758ZM42.7246 54.1016C41.6829 54.1016 40.8854 53.8737 40.332 53.418C39.8112 52.9297 39.5508 52.2786 39.5508 51.4648C39.5508 50.7487 39.7786 50.1628 40.2344 49.707C40.6901 49.2188 41.276 48.9746 41.9922 48.9746H43.6523C44.0104 48.9746 44.3197 48.8607 44.5801 48.6328C44.873 48.4049 45.0195 48.0632 45.0195 47.6074V31.9824C45.0195 31.2663 45.2474 30.6803 45.7031 30.2246C46.1914 29.7363 46.8099 29.4922 47.5586 29.4922C48.2747 29.4922 48.8607 29.7363 49.3164 30.2246C49.8047 30.6803 50.0488 31.2663 50.0488 31.9824V47.168C50.0488 49.4466 49.4629 51.1719 48.291 52.3438C47.1191 53.5156 45.4102 54.1016 43.1641 54.1016C43.0664 54.1016 42.985 54.1016 42.9199 54.1016C42.8548 54.1016 42.7897 54.1016 42.7246 54.1016ZM64.502 42.6758C63.6882 42.6758 63.0046 42.4154 62.4512 41.8945C61.8978 41.3411 61.6211 40.6413 61.6211 39.7949V32.4219C61.6211 31.6081 61.8978 30.9245 62.4512 30.3711C63.0046 29.8177 63.6882 29.541 64.502 29.541C65.3483 29.541 66.0482 29.8177 66.6016 30.3711C67.1549 30.9245 67.4316 31.6081 67.4316 32.4219V39.7949C67.4316 40.6413 67.1549 41.3411 66.6016 41.8945C66.0482 42.4154 65.3483 42.6758 64.502 42.6758ZM46.3379 69.873C43.5059 69.873 40.7064 69.3197 37.9395 68.2129C35.1725 67.0736 32.8125 65.4297 30.8594 63.2812C30.6315 63.0208 30.4362 62.7441 30.2734 62.4512C30.1432 62.1257 30.0781 61.7839 30.0781 61.4258C30.0781 60.6771 30.3223 60.0749 30.8105 59.6191C31.2988 59.1634 31.8848 58.9355 32.5684 58.9355C33.0241 58.9355 33.4147 59.0332 33.7402 59.2285C34.0658 59.4238 34.3913 59.6842 34.7168 60.0098C36.1816 61.4746 37.9395 62.6465 39.9902 63.5254C42.041 64.4043 44.1569 64.8438 46.3379 64.8438C48.5514 64.8438 50.6836 64.4043 52.7344 63.5254C54.8177 62.6139 56.543 61.4421 57.9102 60.0098C58.6263 59.2936 59.3424 58.9355 60.0586 58.9355C60.7747 58.9355 61.377 59.1634 61.8652 59.6191C62.3535 60.0749 62.5977 60.6771 62.5977 61.4258C62.5977 61.849 62.5163 62.2233 62.3535 62.5488C62.2233 62.8418 62.0443 63.1022 61.8164 63.3301C59.7656 65.3809 57.373 66.9922 54.6387 68.1641C51.9368 69.3034 49.1699 69.873 46.3379 69.873Z" fill="#1D70B8"/>
</svg>
