<svg width="1024" height="1024" viewBox="0 0 1024 1024" fill="none" xmlns="http://www.w3.org/2000/svg">
<g clip-path="url(#clip0_389_7384)">
<path d="M435.854 599.571C449.001 599.571 459.659 588.913 459.659 575.766C459.659 562.619 449.001 551.961 435.854 551.961C422.707 551.961 412.049 562.619 412.049 575.766C412.049 588.913 422.707 599.571 435.854 599.571Z" fill="white"/>
<path d="M371.81 637.931C384.957 637.931 395.615 627.273 395.615 614.126C395.615 600.979 384.957 590.321 371.81 590.321C358.663 590.321 348.005 600.979 348.005 614.126C348.005 627.273 358.663 637.931 371.81 637.931Z" fill="white"/>
<path d="M329.437 701.011C342.584 701.011 353.242 690.353 353.242 677.206C353.242 664.059 342.584 653.401 329.437 653.401C316.29 653.401 305.632 664.059 305.632 677.206C305.632 690.353 316.29 701.011 329.437 701.011Z" fill="white"/>
<path d="M588.069 599.571C601.216 599.571 611.874 588.913 611.874 575.766C611.874 562.619 601.216 551.961 588.069 551.961C574.922 551.961 564.264 562.619 564.264 575.766C564.264 588.913 574.922 599.571 588.069 599.571Z" fill="white"/>
<path d="M652.118 637.931C665.265 637.931 675.923 627.273 675.923 614.126C675.923 600.979 665.265 590.321 652.118 590.321C638.97 590.321 628.312 600.979 628.312 614.126C628.312 627.273 638.97 637.931 652.118 637.931Z" fill="white"/>
<path d="M694.491 701.011C707.638 701.011 718.296 690.353 718.296 677.206C718.296 664.059 707.638 653.401 694.491 653.401C681.343 653.401 670.686 664.059 670.686 677.206C670.686 690.353 681.343 701.011 694.491 701.011Z" fill="white"/>
<path d="M512 684.341C525.147 684.341 535.805 673.683 535.805 660.536C535.805 647.389 525.147 636.731 512 636.731C498.853 636.731 488.195 647.389 488.195 660.536C488.195 673.683 498.853 684.341 512 684.341Z" fill="white"/>
<path d="M521.601 524.788C522.801 523.883 523.876 522.813 524.776 521.613L555.057 537.512V492.875L524.815 502.472C523.933 501.292 522.888 500.237 521.722 499.336L533.892 461H490.107L502.277 499.331C501.106 500.227 500.066 501.282 499.184 502.467L468.942 492.87V537.507L499.223 521.609C500.128 522.813 501.198 523.883 502.398 524.784L485.15 576.802C479.079 595.11 492.709 613.996 512 613.996C531.29 613.996 544.92 595.115 538.849 576.802L521.601 524.784V524.788Z" fill="white"/>
<path d="M546.606 707.949C546.606 707.949 524.493 732.553 519.67 747.566C534.143 747.108 547.146 744.29 561.455 729.354L556.604 784.938C543.432 766.457 527.985 758.493 519.424 760.087C520.291 780.004 522.378 804.07 557.254 807.235C581.589 809.35 601.125 797.397 603.158 782.606C605.572 765.613 590.261 754.373 578.717 772.262C569.694 742.661 594.626 732.828 610.641 751.15C598.312 721.94 598.634 701.189 626.058 680.207C645.734 706.364 642.939 727.981 618.551 752.326C634.431 743.538 659.089 752.783 644.563 782.457C636.975 763.999 620.691 768.124 617.275 784.003C614.996 795.219 621.799 808.415 636.594 811.123C648.735 813.349 667.433 805.057 682.422 772.773C673.995 772.99 666.595 777.244 657.027 783.83L672.743 731.426C676.698 746.135 681.766 755.79 687.134 761.012C690.737 750.423 690.222 742.753 686.999 726.252L719.49 737.819C702.228 761.364 685.51 794.405 671.794 852.118C623.451 845.219 569.332 841.336 511.99 841.336C454.648 841.336 400.529 845.214 352.187 852.118C338.475 794.41 321.753 761.364 304.49 737.819L336.982 726.252C333.759 742.748 333.243 750.423 336.847 761.012C342.214 755.79 347.278 746.135 351.238 731.426L366.954 783.83C357.385 777.244 349.99 772.99 341.559 772.773C356.547 805.052 375.245 813.344 387.386 811.123C402.182 808.415 408.985 795.219 406.706 784.003C403.29 768.124 387.006 763.999 379.417 782.457C364.892 752.783 389.549 743.538 405.429 752.326C381.041 727.986 378.247 706.364 397.923 680.207C425.346 701.189 425.669 721.94 413.34 751.15C429.354 732.828 454.287 742.666 445.263 772.262C433.719 754.373 418.408 765.613 420.822 782.606C422.855 797.397 442.392 809.35 466.727 807.235C501.603 804.07 503.689 780.004 504.556 760.087C495.995 758.493 480.544 766.457 467.377 784.938L462.525 729.354C476.834 744.294 489.843 747.108 504.311 747.566C499.488 732.553 477.374 707.949 477.374 707.949H546.592H546.606Z" fill="white"/>
</g>
<defs>
<clipPath id="clip0_389_7384">
<rect width="415" height="391.108" fill="white" transform="translate(304.5 461)"/>
</clipPath>
</defs>
</svg>
