<svg width="1024" height="1024" viewBox="0 0 1024 1024" fill="none" xmlns="http://www.w3.org/2000/svg">
<path d="M270.035 341.023H218.18L210.27 367H180.191L225.992 226.961H263.199L309.684 367H278.043L270.035 341.023ZM225.797 316.023H262.418L244.254 256.844H243.863L225.797 316.023ZM334.09 226.961H362.41V340.828H417.879V367H334.09V226.961ZM443.457 226.961H499.414C506.641 226.961 513.151 228.165 518.945 230.574C524.805 232.918 529.753 236.173 533.789 240.34C537.826 244.441 540.918 249.324 543.066 254.988C545.28 260.652 546.387 266.805 546.387 273.445C546.387 280.086 545.182 286.238 542.773 291.902C540.43 297.566 537.077 302.482 532.715 306.648C528.418 310.75 523.242 313.973 517.188 316.316C511.133 318.66 504.46 319.832 497.168 319.832H471.777V367H443.457V226.961ZM517.188 272.957C517.188 269.637 516.602 266.707 515.43 264.168C514.258 261.564 512.565 259.35 510.352 257.527C508.138 255.704 505.469 254.337 502.344 253.426C499.219 252.449 495.703 251.961 491.797 251.961H471.777V294.832H491.797C495.703 294.832 499.219 294.376 502.344 293.465C505.469 292.488 508.138 291.089 510.352 289.266C512.565 287.443 514.258 285.262 515.43 282.723C516.602 280.118 517.188 277.156 517.188 273.836V272.957ZM662.492 308.016H600.871V367H572.551V226.961H600.871V282.43H662.492V226.961H690.91V367H662.492V308.016ZM805.355 341.023H753.5L745.59 367H715.512L761.312 226.961H798.52L845.004 367H813.363L805.355 341.023ZM761.117 316.023H797.738L779.574 256.844H779.184L761.117 316.023Z" fill="white"/>
</svg>
