<svg width="1024" height="1024" viewBox="0 0 1024 1024" fill="none" xmlns="http://www.w3.org/2000/svg">
<path d="M1024 367L370.5 1024H1024V367Z" fill="#FFDD00"/>
<path d="M702 861.739C708.04 867.78 712.73 874.121 716.069 880.761C719.408 887.327 721.209 894.006 721.472 900.797C721.772 907.55 720.459 914.341 717.532 921.169C714.568 927.96 709.822 934.62 703.294 941.148L673.579 970.863L592.875 890.16L622.591 860.445C629.119 853.917 635.797 849.189 642.626 846.263C649.417 843.299 656.189 841.967 662.942 842.267C669.733 842.529 676.43 844.349 683.034 847.726C689.637 851.028 695.959 855.699 702 861.739ZM683.484 877.103C680.07 873.689 676.468 870.95 672.678 868.887C668.889 866.748 664.968 865.529 660.916 865.228C656.902 864.891 652.793 865.585 648.591 867.311C644.352 868.999 640.131 871.944 635.929 876.147L623.716 888.359L675.38 940.023L687.592 927.81C691.757 923.646 694.702 919.462 696.428 915.26C698.116 911.02 698.792 906.893 698.454 902.879C698.116 898.789 696.897 894.831 694.796 891.004C692.695 887.177 689.956 883.575 686.579 880.199L683.484 877.103ZM674.817 808.218L729.182 753.853L743.983 768.655L705.939 806.699L723.104 823.864L758.165 788.802L772.91 803.547L737.849 838.609L757.096 857.856L797.335 817.617L812.08 832.362L755.52 888.922L674.817 808.218ZM839.094 753.234L785.404 747.269L841.289 803.153L824.968 819.474L744.265 738.771L760.811 722.225L816.189 729.879L809.266 673.769L825.137 657.898L905.84 738.602L889.463 754.979L833.579 699.094L839.657 752.671L839.094 753.234ZM875.394 605.391C881.397 599.388 887.869 595.092 894.81 592.503C901.713 589.876 908.692 588.788 915.745 589.239C922.799 589.614 929.721 591.471 936.512 594.81C943.303 598.074 949.587 602.595 955.365 608.373C961.181 614.189 965.721 620.492 968.985 627.283C972.286 634.036 974.144 640.959 974.556 648.05C975.007 655.103 973.919 662.082 971.292 668.985C968.666 675.889 964.351 682.342 958.348 688.345C952.308 694.386 945.836 698.719 938.932 701.345C932.066 703.934 925.088 705.022 917.996 704.61C910.943 704.159 904.021 702.302 897.23 699.038C890.476 695.736 884.192 691.178 878.376 685.362C872.598 679.584 868.059 673.319 864.757 666.565C861.455 659.737 859.598 652.815 859.185 645.799C858.773 638.707 859.861 631.729 862.45 624.863C865.038 617.922 869.353 611.431 875.394 605.391ZM943.603 673.6C947.13 670.073 949.569 666.321 950.919 662.344C952.27 658.292 952.683 654.165 952.158 649.963C951.632 645.761 950.225 641.578 947.937 637.413C945.648 633.248 942.59 629.253 938.763 625.426L938.313 624.976C934.524 621.186 930.547 618.147 926.382 615.858C922.18 613.532 917.978 612.106 913.776 611.581C909.573 611.056 905.465 611.487 901.451 612.876C897.436 614.189 893.665 616.609 890.139 620.136C886.612 623.662 884.173 627.452 882.822 631.504C881.434 635.518 881.003 639.627 881.528 643.829C882.091 647.993 883.535 652.177 885.861 656.379C888.15 660.544 891.189 664.521 894.979 668.31L895.429 668.76C899.256 672.587 903.251 675.645 907.416 677.934C911.581 680.222 915.745 681.648 919.91 682.211C924.112 682.736 928.239 682.323 932.291 680.973C936.306 679.584 940.076 677.127 943.603 673.6Z" fill="black"/>
</svg>
