<svg width="36" height="36" viewBox="0 0 36 36" fill="none" xmlns="http://www.w3.org/2000/svg">
<g style="mix-blend-mode:plus-darker">
<path d="M18 19.1772C17.6569 19.1772 17.3138 19.0251 16.9707 18.7207L6.3042 9.26611C6.85205 8.91748 7.54932 8.74316 8.396 8.74316H27.5957C28.4368 8.74316 29.1313 8.91748 29.6792 9.26611L19.021 18.7207C18.6834 19.0251 18.3431 19.1772 18 19.1772ZM5.32471 25.5605C5.2251 25.3503 5.14762 25.1123 5.09229 24.8467C5.03695 24.5811 5.00928 24.2767 5.00928 23.9336V12.0967C5.00928 11.7314 5.03695 11.4105 5.09229 11.1338C5.15316 10.8571 5.22233 10.6496 5.2998 10.5112L13.2935 17.6001L5.32471 25.5605ZM8.16357 27.2871C7.7596 27.2871 7.40544 27.2456 7.10107 27.1626C6.79671 27.0796 6.53939 26.9661 6.3291 26.8223L14.5054 18.6543L16.0161 19.999C16.3371 20.2812 16.6608 20.4915 16.9873 20.6299C17.3138 20.7682 17.6514 20.8374 18 20.8374C18.3431 20.8374 18.6779 20.7682 19.0044 20.6299C19.3309 20.4915 19.6546 20.2812 19.9756 19.999L21.4863 18.6543L29.6543 26.8223C29.444 26.9661 29.1867 27.0796 28.8823 27.1626C28.578 27.2456 28.2266 27.2871 27.8281 27.2871H8.16357ZM30.667 25.5605L22.6899 17.6001L30.6836 10.5112C30.7611 10.6496 30.8302 10.8571 30.8911 11.1338C30.952 11.4105 30.9824 11.7314 30.9824 12.0967V23.9336C30.9824 24.2767 30.9548 24.5811 30.8994 24.8467C30.8441 25.1123 30.7666 25.3503 30.667 25.5605Z" fill="#1A1A1A" style="mix-blend-mode:plus-darker"/>
</g>
</svg>
