<svg width="100" height="162" viewBox="0 0 100 162" fill="none" xmlns="http://www.w3.org/2000/svg">
<path d="M26.9568 75.6652C26.9568 75.6652 27.308 46.5348 27.308 32.9729C27.308 19.4111 38.2946 8.42444 51.8565 8.42444C65.4184 8.42444 76.405 19.4111 76.405 32.9729C76.4385 34.4445 76.2879 43.7422 76.2879 43.7422" stroke="#8EB8DC" stroke-width="16.8488" stroke-miterlimit="10" stroke-linecap="round"/>
<path d="M50 161.451C77.6142 161.451 100 139.065 100 111.451C100 83.8368 77.6142 61.451 50 61.451C22.3858 61.451 0 83.8368 0 111.451C0 139.065 22.3858 161.451 50 161.451Z" fill="#1D70B8"/>
<path d="M50.291 117.232C56.32 117.232 61.2074 112.345 61.2074 106.316C61.2074 100.287 56.32 95.3995 50.291 95.3995C44.262 95.3995 39.3746 100.287 39.3746 106.316C39.3746 112.345 44.262 117.232 50.291 117.232Z" fill="#0F385C"/>
<path d="M50.4643 126.251L50.3937 106.556" stroke="#0F385C" stroke-width="10.9337" stroke-miterlimit="10" stroke-linecap="round"/>
</svg>
