<svg width="100" height="162" viewBox="0 0 100 162" fill="none" xmlns="http://www.w3.org/2000/svg">
<path d="M26.9568 75.6651C26.9568 75.6651 27.308 46.5347 27.308 32.9728C27.308 19.4109 38.2946 8.42432 51.8565 8.42432C65.4184 8.42432 76.405 19.4109 76.405 32.9728C76.4385 34.4444 76.2879 43.742 76.2879 43.742" stroke="#11E0F1" stroke-width="16.8488" stroke-miterlimit="10" stroke-linecap="round"/>
<path d="M50 161.451C77.6142 161.451 100 139.065 100 111.451C100 83.8367 77.6142 61.4509 50 61.4509C22.3858 61.4509 0 83.8367 0 111.451C0 139.065 22.3858 161.451 50 161.451Z" fill="#1D70B8"/>
<path d="M50.2906 96.1807C55.8882 96.1807 60.4262 100.718 60.4264 106.315C60.4264 111.913 55.8883 116.451 50.2906 116.451C44.6932 116.451 40.1559 111.913 40.1559 106.315C40.1561 100.718 44.6933 96.1809 50.2906 96.1807Z" fill="#061625" stroke="#061625" stroke-width="1.56195"/>
<path d="M50.4643 126.25L50.3937 106.556" stroke="#061625" stroke-width="10.9337" stroke-miterlimit="10" stroke-linecap="round"/>
</svg>
