<svg width="100" height="142" viewBox="0 0 100 142" fill="none" xmlns="http://www.w3.org/2000/svg">
<ellipse cx="50" cy="134.897" rx="50" ry="6.89655" fill="#8EB8DC"/>
<path d="M50 0C22.3855 0 0 22.246 0 49.6885C0 67.626 9.56463 83.3346 23.8966 92.0769L42.0664 128.214C43.9374 131.194 47.1276 133.041 50.3598 132.999C53.1962 132.964 55.9247 131.521 57.8196 129.162C64.344 116.736 70.6644 104.156 76.9549 91.5525C90.8131 82.7208 100 67.2744 100 49.6945C100 22.252 77.6145 0.0059651 50 0.0059651V0ZM50 74.503C36.8074 74.503 26.1094 63.8716 26.1094 50.7612C26.1094 37.6508 36.8074 27.0194 50 27.0194C63.1926 27.0194 73.8906 37.6508 73.8906 50.7612C73.8906 63.8716 63.1926 74.503 50 74.503Z" fill="#1D70B8"/>
</svg>
