<svg width="100" height="122" viewBox="0 0 100 122" fill="none" xmlns="http://www.w3.org/2000/svg">
<ellipse cx="50" cy="115.08" rx="50" ry="6.89655" fill="#11E0F1"/>
<path d="M50.1844 0C26.3787 0 7.08092 19.2791 7.08092 43.0616C7.08092 58.6067 15.3263 72.2204 27.6814 79.7967L43.3451 111.114C44.958 113.696 47.7082 115.297 50.4945 115.261C52.9397 115.23 55.2918 113.98 56.9254 111.935C62.5498 101.167 67.9985 90.2651 73.4213 79.3422C85.3681 71.6884 93.2878 58.302 93.2878 43.0668C93.2878 19.2842 73.99 0.00516954 50.1844 0.00516954V0ZM50.1844 64.5666C38.8114 64.5666 29.589 55.3531 29.589 43.9912C29.589 32.6293 38.8114 23.4159 50.1844 23.4159C61.5573 23.4159 70.7797 32.6293 70.7797 43.9912C70.7797 55.3531 61.5573 64.5666 50.1844 64.5666Z" fill="#1D70B8"/>
</svg>
