<svg width="36" height="36" viewBox="0 0 36 36" fill="none" xmlns="http://www.w3.org/2000/svg">
<g style="mix-blend-mode:plus-darker">
<path d="M14.7212 25.7847C14.9315 25.7847 15.0975 25.7238 15.2192 25.6021C15.3465 25.4803 15.4074 25.3198 15.4019 25.1206L15.0532 13.3086C15.0477 13.1094 14.9813 12.9517 14.854 12.8354C14.7267 12.7192 14.5662 12.6611 14.3726 12.6611C14.1567 12.6611 13.988 12.722 13.8662 12.8438C13.7445 12.96 13.6864 13.1177 13.6919 13.3169L14.0322 25.1289C14.0433 25.3281 14.1097 25.4858 14.2314 25.6021C14.3587 25.7238 14.522 25.7847 14.7212 25.7847ZM18.0083 25.7847C18.2131 25.7847 18.3791 25.7238 18.5063 25.6021C18.6336 25.4858 18.6973 25.3281 18.6973 25.1289V13.3086C18.6973 13.1149 18.6336 12.96 18.5063 12.8438C18.3791 12.722 18.2131 12.6611 18.0083 12.6611C17.798 12.6611 17.6292 12.722 17.502 12.8438C17.3747 12.96 17.311 13.1149 17.311 13.3086V25.1289C17.311 25.3281 17.3747 25.4858 17.502 25.6021C17.6292 25.7238 17.798 25.7847 18.0083 25.7847ZM21.2788 25.7847C21.4891 25.7847 21.6551 25.7266 21.7769 25.6104C21.8986 25.4941 21.965 25.3337 21.9761 25.1289L22.3081 13.3252C22.3192 13.126 22.2611 12.9655 22.1338 12.8438C22.012 12.722 21.8488 12.6611 21.644 12.6611C21.4448 12.6611 21.2816 12.7192 21.1543 12.8354C21.027 12.9517 20.9606 13.1121 20.9551 13.3169L20.6064 25.1289C20.6009 25.3226 20.659 25.4803 20.7808 25.6021C20.9025 25.7238 21.0685 25.7847 21.2788 25.7847ZM13.2354 9.87207V7.55615C13.2354 6.77588 13.4705 6.16439 13.9409 5.72168C14.4168 5.27897 15.0809 5.05762 15.9331 5.05762H20.0586C20.9053 5.05762 21.5666 5.27897 22.0425 5.72168C22.5184 6.16439 22.7563 6.77588 22.7563 7.55615V9.87207H21.0298V7.63916C21.0298 7.3348 20.9329 7.09408 20.7393 6.91699C20.5456 6.73438 20.2827 6.64307 19.9507 6.64307H16.041C15.709 6.64307 15.4461 6.73438 15.2524 6.91699C15.0588 7.09408 14.9619 7.3348 14.9619 7.63916V9.87207H13.2354ZM8.37109 10.8765C8.14421 10.8765 7.94775 10.7962 7.78174 10.6357C7.62126 10.4753 7.54102 10.2788 7.54102 10.0464C7.54102 9.8195 7.62126 9.62581 7.78174 9.46533C7.94775 9.29932 8.14421 9.21631 8.37109 9.21631H27.6289C27.8613 9.21631 28.0578 9.29655 28.2183 9.45703C28.3787 9.61751 28.459 9.81396 28.459 10.0464C28.459 10.2788 28.3787 10.4753 28.2183 10.6357C28.0633 10.7962 27.8669 10.8765 27.6289 10.8765H8.37109ZM13.1191 29.0552C12.5934 29.0552 12.1341 28.9528 11.7412 28.748C11.3538 28.5433 11.0467 28.2528 10.8198 27.8765C10.5985 27.5002 10.4767 27.0547 10.4546 26.54L9.68262 10.6606H26.3257L25.562 26.5317C25.5343 27.0464 25.4071 27.4919 25.1802 27.8682C24.9533 28.25 24.6434 28.5433 24.2505 28.748C23.8631 28.9528 23.4149 29.0552 22.9058 29.0552H13.1191Z" fill="#1A1A1A" style="mix-blend-mode:plus-darker"/>
</g>
</svg>
