<svg width="33" height="33" viewBox="123.25 -1.1796875 32.5 32.5" fill="none" xmlns="http://www.w3.org/2000/svg">
<path d="M127.188 29.8438C126.365 29.8438 125.661 29.6719 125.078 29.3281C124.495 28.9844 124.042 28.5156 123.719 27.9219C123.406 27.3385 123.25 26.6875 123.25 25.9688C123.25 25.2188 123.448 24.5 123.844 23.8125L136.172 2.23438C136.536 1.57812 137.016 1.09375 137.609 0.78125C138.214 0.458333 138.844 0.296875 139.5 0.296875C140.156 0.296875 140.781 0.458333 141.375 0.78125C141.979 1.09375 142.464 1.57812 142.828 2.23438L155.156 23.8125C155.354 24.1562 155.5 24.5156 155.594 24.8906C155.698 25.2552 155.75 25.6146 155.75 25.9688C155.75 26.6875 155.594 27.3385 155.281 27.9219C154.969 28.5156 154.516 28.9844 153.922 29.3281C153.339 29.6719 152.641 29.8438 151.828 29.8438H127.188ZM127.203 27.9531H151.797C152.432 27.9531 152.922 27.7552 153.266 27.3594C153.62 26.9635 153.797 26.4948 153.797 25.9531C153.797 25.5365 153.688 25.1198 153.469 24.7031L141.172 3.14062C140.984 2.80729 140.74 2.57292 140.438 2.4375C140.135 2.29167 139.823 2.21875 139.5 2.21875C139.177 2.21875 138.859 2.29167 138.547 2.4375C138.245 2.57292 138 2.80729 137.812 3.14062L125.516 24.7031C125.401 24.9115 125.318 25.125 125.266 25.3438C125.224 25.5521 125.203 25.7552 125.203 25.9531C125.203 26.4948 125.375 26.9635 125.719 27.3594C126.073 27.7552 126.568 27.9531 127.203 27.9531ZM139.5 19.4531C138.865 19.4531 138.542 19.1146 138.531 18.4375L138.359 10.0781C138.349 9.75521 138.448 9.48958 138.656 9.28125C138.865 9.07292 139.141 8.96875 139.484 8.96875C139.818 8.96875 140.094 9.07812 140.312 9.29688C140.531 9.50521 140.635 9.76562 140.625 10.0781L140.438 18.4375C140.427 19.1146 140.115 19.4531 139.5 19.4531ZM139.5 24.2969C139.094 24.2969 138.75 24.1562 138.469 23.875C138.188 23.5938 138.047 23.2656 138.047 22.8906C138.047 22.4948 138.188 22.1615 138.469 21.8906C138.75 21.6198 139.094 21.4844 139.5 21.4844C139.896 21.4844 140.234 21.6198 140.516 21.8906C140.797 22.1615 140.938 22.4948 140.938 22.8906C140.938 23.276 140.792 23.6094 140.5 23.8906C140.219 24.1615 139.885 24.2969 139.5 24.2969Z" fill="#1D70B8"/>
</svg>
