<svg width="250" height="257" viewBox="0 0 250 257" fill="none" xmlns="http://www.w3.org/2000/svg">
<path d="M64.4189 123.217C40.1601 123.217 20.4996 142.84 20.4996 167.052C20.4996 182.871 28.8985 196.739 41.4867 204.445L57.4465 236.322C59.0923 238.951 61.8952 240.583 64.738 240.544C67.2317 240.514 69.6257 239.239 71.2915 237.159C77.0171 226.198 82.573 215.097 88.0991 203.977C100.278 196.182 108.348 182.552 108.348 167.052C108.348 142.84 88.6876 123.217 64.4288 123.217H64.4189ZM64.4189 188.944C52.8281 188.944 43.4318 179.566 43.4318 167.997C43.4318 156.429 52.8281 147.051 64.4189 147.051C76.0096 147.051 85.4058 156.429 85.4058 167.997C85.4058 179.566 76.0096 188.944 64.4189 188.944Z" fill="#0F385C"/>
<path d="M236.226 134.845C235.677 129.509 229.154 121.764 226.132 117.105C216.945 102.918 223.887 85.3065 220.705 69.2781C216.875 49.9543 198.811 35.6083 178.223 36.0464C157.634 35.6083 139.58 49.9543 135.74 69.2781C132.558 85.3065 139.54 102.918 130.353 117.105C127.331 121.774 120.767 129.509 120.219 134.845C119.371 143.049 121.735 149.61 131.061 150.814H167.22H178.213H189.205H225.363C234.69 149.61 237.054 143.049 236.206 134.845H236.226Z" fill="#0F385C"/>
<path d="M178.562 50.8901C187.343 50.8901 194.462 43.7852 194.462 35.0209C194.462 26.2566 187.343 19.1517 178.562 19.1517C169.78 19.1517 162.662 26.2566 162.662 35.0209C162.662 43.7852 169.78 50.8901 178.562 50.8901Z" fill="#0F385C"/>
<path d="M157.574 150.635C158.831 161.088 167.749 169.202 178.561 169.202C189.374 169.202 198.292 161.098 199.548 150.635H157.574Z" fill="#8EB8DC"/>
<path d="M113.986 73.7156C118.717 46.3201 100.301 20.2837 72.8529 15.5616C45.4045 10.8394 19.3176 29.2196 14.5863 56.6151C9.85502 84.0105 28.2709 110.047 55.7194 114.769C83.1678 119.491 109.255 101.111 113.986 73.7156Z" fill="#1D70B8"/>
<path d="M118.873 108.453C117.646 110.026 115.531 110.852 113.387 110.614L74.0857 102.42C71.4323 96.7753 95.2821 65.0569 103.062 66.0325C108.728 78.467 114.524 90.8816 119.93 103.386C120.329 105.198 119.96 107.059 118.883 108.443L118.873 108.453Z" fill="#1D70B8"/>
<path d="M41.9765 74.4448C46.4828 74.4448 50.136 70.7988 50.136 66.3012C50.136 61.8036 46.4828 58.1575 41.9765 58.1575C37.4702 58.1575 33.8171 61.8036 33.8171 66.3012C33.8171 70.7988 37.4702 74.4448 41.9765 74.4448Z" fill="#11E0F1"/>
<path d="M64.4299 74.4448C68.9362 74.4448 72.5893 70.7988 72.5893 66.3012C72.5893 61.8036 68.9362 58.1575 64.4299 58.1575C59.9235 58.1575 56.2705 61.8036 56.2705 66.3012C56.2705 70.7988 59.9235 74.4448 64.4299 74.4448Z" fill="#11E0F1"/>
<path d="M86.873 74.4448C91.3793 74.4448 95.0324 70.7988 95.0324 66.3012C95.0324 61.8036 91.3793 58.1575 86.873 58.1575C82.3666 58.1575 78.7136 61.8036 78.7136 66.3012C78.7136 70.7988 82.3666 74.4448 86.873 74.4448Z" fill="#11E0F1"/>
<path d="M206.571 183.876H140.129C123.382 183.876 109.805 197.427 109.805 214.141V214.151C109.805 230.866 123.382 244.416 140.129 244.416H206.571C223.318 244.416 236.895 230.866 236.895 214.151V214.141C236.895 197.427 223.318 183.876 206.571 183.876Z" fill="#1D70B8"/>
<path d="M202.881 235.616C214.472 235.616 223.868 226.237 223.868 214.669C223.868 203.101 214.472 193.723 202.881 193.723C191.29 193.723 181.894 203.101 181.894 214.669C181.894 226.237 191.29 235.616 202.881 235.616Z" fill="#11E0F1"/>
</svg>
