<svg width="100" height="130" viewBox="0 0 100 130" fill="none" xmlns="http://www.w3.org/2000/svg">
<path d="M50.3002 27.3335C57.8503 27.3335 63.9707 21.2147 63.9707 13.6667C63.9707 6.11881 57.8503 0 50.3002 0C42.7502 0 36.6296 6.11881 36.6296 13.6667C36.6296 21.2147 42.7502 27.3335 50.3002 27.3335Z" fill="#1D70B8"/>
<path d="M32.2556 113.235C33.3363 122.238 41.0035 129.225 50.3001 129.225C59.5968 129.225 67.264 122.246 68.3446 113.235H32.2556Z" fill="#11E0F1"/>
<path d="M50.0089 14.5505C67.7102 14.1734 83.242 26.5279 86.5353 43.1697C89.2711 56.9735 83.3019 72.1404 91.2003 84.3582C93.7989 88.3707 99.4073 95.0419 99.879 99.6375H99.8624C100.591 106.702 98.5586 112.352 90.5402 113.389H9.46008C1.44137 112.352 -0.5911 106.702 0.137817 99.6375C0.609511 95.0419 6.2521 88.3793 8.85071 84.3582C16.7493 72.1404 10.7467 56.9736 13.4825 43.1697C16.7844 26.5278 32.3076 14.1733 50.0089 14.5505Z" fill="#1D70B8"/>
<ellipse cx="81.7573" cy="32.4833" rx="12.0597" ry="12.0597" fill="#11E0F1"/>
</svg>
