<svg width="100" height="130" viewBox="0 0 100 130" fill="none" xmlns="http://www.w3.org/2000/svg">
<path d="M50.3001 27.3335C57.8501 27.3335 63.9706 21.2147 63.9706 13.6667C63.9706 6.11881 57.8501 0 50.3001 0C42.7501 0 36.6295 6.11881 36.6295 13.6667C36.6295 21.2147 42.7501 27.3335 50.3001 27.3335Z" fill="#0F385C"/>
<path d="M50.2996 21.1515C54.4345 21.1515 57.7866 17.8003 57.7866 13.6665C57.7866 9.53264 54.4345 6.18152 50.2996 6.18152C46.1646 6.18152 42.8125 9.53264 42.8125 13.6665C42.8125 17.8003 46.1646 21.1515 50.2996 21.1515Z" fill="#0F385C"/>
<path d="M32.2555 113.235C33.3361 122.238 41.0033 129.225 50.3 129.225C59.5966 129.225 67.2638 122.246 68.3444 113.235H32.2555Z" fill="#8EB8DC"/>
<path fill-rule="evenodd" clip-rule="evenodd" d="M50.0087 14.5495C67.71 14.1724 83.2418 26.5279 86.5351 43.1697C89.2708 56.9735 83.3016 72.1405 91.2001 84.3581C93.7987 88.3707 99.4071 95.0418 99.8788 99.6374H99.8622C100.591 106.702 98.5584 112.352 90.54 113.389H9.45989C1.44124 112.352 -0.591254 106.702 0.137625 99.6374C0.609319 95.0418 6.25191 88.3793 8.85052 84.3581C16.7492 72.1404 10.7465 56.9736 13.4824 43.1697C16.7842 26.5278 32.3073 14.1723 50.0087 14.5495Z" fill="#0F385C"/>
<ellipse cx="81.7571" cy="32.4835" rx="12.0597" ry="12.0597" fill="#11E0F1"/>
</svg>
