<svg width="100" height="124" viewBox="0 0 100 124" fill="none" xmlns="http://www.w3.org/2000/svg">
<g clip-path="url(#clip0_22842_4920)">
<path d="M43.0547 43.6282C22.344 43.6282 5.55469 60.4175 5.55469 81.1282C5.55469 101.839 22.344 118.628 43.0547 118.628C63.7654 118.628 80.5547 101.839 80.5547 81.1282C80.5547 60.4175 63.7654 43.6282 43.0547 43.6282Z" fill="#11E0F1"/>
<path d="M98.834 -53.2049C55.5512 -53.2049 20.4636 -18.1173 20.4636 25.1655C20.4636 68.4483 55.5512 103.536 98.834 103.536C142.117 103.536 177.204 68.4482 177.204 25.1655C177.204 -18.1173 142.117 -53.2049 98.834 -53.2049Z" fill="#BA4AFF"/>
<path d="M75.4668 99.994C78.6995 94.4519 80.5537 88.0066 80.5537 81.1278C80.5535 60.4173 63.7643 43.6278 43.0537 43.6278C36.1314 43.6278 29.6487 45.5064 24.083 48.7772C31.7749 73.1514 51.0581 92.3801 75.4668 99.994Z" fill="#BFE9FF"/>
<path d="M17.0547 90.6278C7.94199 90.6278 0.554688 98.0151 0.554689 107.128C0.554689 116.24 7.94199 123.628 17.0547 123.628C26.1674 123.628 33.5547 116.24 33.5547 107.128C33.5547 98.0151 26.1674 90.6278 17.0547 90.6278Z" fill="#66F39E"/>
<path d="M30.624 116.516C32.4715 113.851 33.5547 110.616 33.5547 107.128C33.5547 98.0151 26.1674 90.6278 17.0547 90.6278C13.5665 90.6278 10.332 91.7113 7.66699 93.5585C11.429 104.269 19.9136 112.754 30.624 116.516Z" fill="#70FEFA"/>
</g>
<defs>
<clipPath id="clip0_22842_4920">
<rect width="100" height="124" fill="white"/>
</clipPath>
</defs>
</svg>
