<svg width="115" height="134" viewBox="0 0 115 134" fill="none" xmlns="http://www.w3.org/2000/svg">
<path d="M91 21.9523V112C91 116.418 87.4183 120 83 120H8C3.58172 120 0 116.418 0 112V8C0 3.58172 3.58172 0 8 0H68.9349L91 21.9523Z" fill="#D2E2F1"/>
<rect x="11" y="25" width="68" height="8" rx="4" fill="#1D70B8"/>
<rect x="11" y="43" width="68" height="8" rx="4" fill="#1D70B8"/>
<rect x="11" y="60" width="50" height="8" rx="4" fill="#1D70B8"/>
<circle cx="85" cy="104" r="30" fill="#11E0F1"/>
<path d="M78.4463 118.538L67 106.847L71.492 102.447L78.4747 109.575L97.8761 90L102.343 94.4246L78.4463 118.538Z" fill="#0F385C"/>
</svg>
