<?xml version="1.0" encoding="UTF-8"?>
<svg id="Layer_1" xmlns="http://www.w3.org/2000/svg" version="1.1" viewBox="0 0 99.14 99.6">
  <!-- Generator: Adobe Illustrator 30.6.0, SVG Export Plug-In . SVG Version: 2.1.4 Build 109)  -->
  <defs>
    <style>
      .st0 {
        fill: #d2e2f1;
      }

      .st1 {
        fill: #0f385c;
      }
    </style>
  </defs>
  <g>
    <path class="st0" d="M99.14,64.17c-.28.78-.58,1.56-.9,2.33-2.2,5.2-5.3,9.8-9.3,13.8s-8.6,7.1-13.8,9.3c-5.2,2.3-10.7,3.4-16.7,3.4s-11.5-1.2-16.7-3.4c-5.2-2.3-9.8-5.4-13.8-9.3-3.9-4-7.1-8.6-9.3-13.8-2.2-5.2-3.3-10.8-3.3-16.7s1.1-11.5,3.3-16.7c2.2-5.3,5.3-9.9,9.3-13.8,3.1-3.1,6.57-5.66,10.4-7.68v.38c0,2-.4,3.6-1.3,4.9-.9,1.3-1.7,2.5-2.6,3.7-.9,1.2-1.3,2.7-1.3,4.1s.5,2.5,1.4,3.4c.9.9,2.3,1.3,3.7,1.3s2.6-.3,3.4-.9c.8-.6,1.5-1.3,2-2.1.5-.8.9-1.5,1.3-2.1.4-.6.9-.9,1.5-.9s1.3.2,2,.8c.7.6,1.5,1.1,2.4,1.7,1,.5,2.2.8,3.3.8s1.9-.4,2.5-1.1c.38-.61.59-1.34.66-2.27.33.15.67.31,1.04.47.9.4,1.7.9,2.5,1.4s1.5,1,2,1.6.8,1,.8,1.7-.1,1.4-.4,2.1-.5,1.1-1.2,1.1-1.8-.2-3.1-.6c-1.3-.5-2.8-.9-4.5-1.3-1.7-.5-1.5-.7-5-.7s-6.7.7-9.9,2.2c-3.1,1.5-5.7,3.6-7.7,6.2-2,2.6-3,5-3,9.1s1.2,7.3,3.5,9.7c2.4,2.3,5.7,3.5,10,3.5,2.4,0,4.3.7,5.9,2.1,1.5,1.4,2.3,3.6,2.3,5.4v6.2c.1,2.2.4,4.5.9,6.6.5,2.1,1.5,3.8,2.9,5.2,1.4,1.4,3.5,2.1,6.2,2.1l.1-.1c2.3,0,4.5-.7,6.6-2.2,2.1-1.5,4-3.2,5.7-5.3,1.7-2.1,3.1-4.1,4.3-6,1.2-1.9,2-3.3,2.5-4.1,1.3-2.1,1.8-4.1,1.6-6-.2-1.9-.2-3.5-.2-4.7,0-.5.5-1.2,1.3-2.2.9-1,1.8-2.1,2.6-3.4.9-1.4,1.3-3.1,1.3-4.2s-.5-2.2-1.5-3.2-2.2-2-3.5-2.8c-1.3-.9-2.5-1.6-3.5-2.3-1-.7-1.5-1.1-1.5-1.7s.2-1.1.6-1.7c.5-.6.9-.9,1.4-.9s1.2.3,2,1,1.7,1.5,2.7,2.4c1,.8,2,1.6,3,2.3s2,1,2.7,1,1.2-.1,1.6-.4.7-.6,1-.9c.3-.3.5-.4.8-.4s.5.5.8,1.5c.3,1,.6,2.3,1,3.8.5,1.5,1,3,1.6,4.7.6,1.6,1.4,3.1,2.3,4.5.39.56.83,1.06,1.3,1.5v-9.04c-.11-.37-.21-.76-.3-1.16-.5-1.8-.9-3.5-1.3-5.2-.5-1.7-1.1-3.1-1.8-4.2-.7-1.1-2.1-1.7-3.1-1.7s-1.9.3-2.6,1c-.7.6-1.3.9-1.7.9-.1,0-.4-.1-.8-.3-.3-.2-.8-.6-1.5-1.1-.6-.6-1.4-1.2-2.3-2-.7-.6-1.5-1.2-2.3-1.8-.8-.6-1.6-.9-3.2-.9s-3.1.7-4.4,2.2-2,3.4-2,4.8.5,2.6,1.5,3.6,2.1,1.9,3.4,2.7c1.3.8,2.4,1.5,3.4,2.1,1,.6,1.5,1,1.5,1.6s-.2,1.1-.5,1.7c-.3.6-.9,1.4-1.8,2.4-1,1.1-1.7,2.1-2.2,3-.5.9-.7,1.8-.7,2.7v2.3c.1,1.7.1,2.9,0,3.7-.1.8-.3,1.6-.8,2.4-.6.9-1.4,2.2-2.4,3.8-1,1.6-2.2,3.3-3.6,5-1.3,1.6-2.8,3.1-4.3,4.3-1.5,1.2-3.2,1.8-4.6,1.8s-2.5-.4-3.2-1.3c-.7-.9-1.1-2-1.4-3.5-.2-1.5-.4-3.1-.4-4.9v-5.5c0-3.5-1.3-6.5-3.8-8.9-2.5-2.4-3.7-3.6-9.4-3.6s-8.6-2.8-8.6-8.3c0-2.5.8-4.7,2.3-6.6,1.6-1.9,3.5-3.4,5.9-4.4,2.4-1.1,4.9-1.6,7.4-1.6,1.7,0,3.3.2,4.8.7s2.9.9,4.3,1.3c1.4.4,3,.6,4.1.6s2.1-.5,2.9-1.4c.9-.9,1.5-2,2-3.3s.7-2.6.7-3.8-.5-2.3-1.5-3.4-2.2-2.2-3.7-3.1c-1.4-.9-2.9-1.7-4.2-2.2s-1.9-.8-3.1-.8-2,.4-2.6,1.1c-.49.58-.84,1.5-.95,2.59l-.65-.49c-1-.8-1.9-1.4-2.8-1.8-.9-.4-1.5-.6-2.7-.6s-2.1.3-2.8,1c-.7.6-1.2,1.4-1.7,2.2-.4.8-.9,1.5-1.3,2.2-.5.6-.9.9-1.6.9s-1.1-.4-1.1-1.1.4-1.7,1.3-2.9c.8-1.2,1.7-2.6,2.6-4.2.9-1.7,1.4-3.5,1.4-5.5v-2.09c4.86-1.96,10.05-2.91,15.5-2.91,5.9,0,11.5,1.2,16.7,3.4,5.2,2.2,9.8,5.3,13.8,9.3s7.1,8.6,9.3,13.8c.33.74.62,1.49.9,2.24v-14.2c-1.63-2.31-3.45-4.49-5.5-6.54-4.6-4.5-9.9-8.1-15.9-10.7-6-2.6-12.5-3.9-19.3-3.9s-13.3,1.3-19.3,3.9c-6.1,2.5-11.3,6.1-15.9,10.7-4.5,4.6-8.1,9.9-10.7,15.9s-3.9,12.5-3.9,19.3,1.3,13.3,3.9,19.3c2.6,6.1,6.1,11.3,10.7,15.9s9.9,8.1,15.9,10.7c6,2.6,12.4,3.9,19.3,3.9s13.3-1.3,19.3-3.9c6.1-2.6,11.3-6.1,15.9-10.7,2.05-2.05,3.87-4.25,5.5-6.57v-14.25Z"/>
    <path class="st0" d="M73.24,14.5c-2,0-3.7.3-4.8,1-1.1.7-1.7,1.6-1.7,2.8,0,.8.3,1.5.8,2,.6.5,1.2.7,2,.7s1.5-.1,2-.4c.59-.29,1.27-.49,2.15-.5.48,0,.97.11,1.55.5.5.3,1.3.5,2.2.5.6,0,1-.2,1.4-.7.4-.5.6-.5.6-1.7s-.6-2.2-1.8-3c-1.2-.8-2.4-1.2-4.4-1.2Z"/>
  </g>
  <path class="st1" d="M59.64,23.2c.8.8,1.2,2,1.3,3.3,0,1.4-.3,2.9-1,4.5-.7,1.6-1.8,3.1-3.3,4.5l-8.8,8.8c-.6.6-.9,1.1-1.1,1.5-.2.4-.2,1-.2,1.8l.9,29.4c0,1-.3,1.8-.9,2.4l-3,3c-.3.3-.6.4-.9.3-.3,0-.6-.3-.7-.8l-8.4-23.2-12,9.6,2.8,10.5c.2.8,0,1.5-.6,2.2l-1,1c-.3.3-.6.5-1,.5s-.7-.1-1-.4L.84,62.2c-.3-.3-.4-.6-.4-1s.2-.7.5-1l1-1c.6-.7,1.4-.9,2.1-.7l10.5,2.8,9.6-12L.84,41c-.4-.1-.7-.4-.8-.7s0-.7.3-.9l3-3c.6-.6,1.4-.9,2.3-.9l29.5.9c.7,0,1.3,0,1.8-.2.4-.2,1-.5,1.5-1.1l8.8-8.8c1.4-1.4,3-2.5,4.5-3.2,1.6-.7,3.1-1.1,4.5-1.1s2.5.4,3.3,1.3l.1-.1Z"/>
</svg>