<svg width="32" height="32" viewBox="0 0 32 32" fill="none" xmlns="http://www.w3.org/2000/svg">
<g clip-path="url(#clip0_3750_30444)">
<path d="M10.9727 5.94922C10.9727 5.10156 11.1777 4.33138 11.5879 3.63867C11.998 2.93685 12.5495 2.38086 13.2422 1.9707C13.9349 1.55143 14.7051 1.3418 15.5527 1.3418C16.4095 1.3418 17.1842 1.55143 17.877 1.9707C18.5697 2.38086 19.1211 2.93685 19.5312 3.63867C19.9505 4.33138 20.1602 5.10156 20.1602 5.94922C20.1602 6.6875 20.0007 7.37109 19.6816 8C19.3626 8.62891 18.9251 9.15755 18.3691 9.58594C17.8223 10.0143 17.2025 10.2969 16.5098 10.4336V20.7695C16.5098 21.5443 16.4779 22.2279 16.4141 22.8203C16.3503 23.4036 16.2728 23.8958 16.1816 24.2969C16.0905 24.6979 15.9902 24.9987 15.8809 25.1992C15.7715 25.3997 15.6621 25.5 15.5527 25.5C15.4525 25.5 15.3477 25.3997 15.2383 25.1992C15.1289 24.9987 15.0241 24.6979 14.9238 24.2969C14.8327 23.8958 14.7552 23.4036 14.6914 22.8203C14.6367 22.2279 14.6094 21.5443 14.6094 20.7695V10.4336C13.9167 10.2969 13.2923 10.0143 12.7363 9.58594C12.1895 9.15755 11.7565 8.62891 11.4375 8C11.1276 7.37109 10.9727 6.6875 10.9727 5.94922ZM14.1992 6.14062C14.6276 6.14062 14.9967 5.98568 15.3066 5.67578C15.6165 5.36589 15.7715 4.99674 15.7715 4.56836C15.7715 4.13997 15.6165 3.77083 15.3066 3.46094C14.9967 3.15104 14.6276 2.99609 14.1992 2.99609C13.7799 2.99609 13.4108 3.15104 13.0918 3.46094C12.7819 3.77083 12.627 4.13997 12.627 4.56836C12.627 4.99674 12.7819 5.36589 13.0918 5.67578C13.4108 5.98568 13.7799 6.14062 14.1992 6.14062ZM15.5664 30.1484C13.625 30.1484 11.875 29.998 10.3164 29.6973C8.76693 29.4056 7.44076 29.0046 6.33789 28.4941C5.24414 27.9837 4.4056 27.3913 3.82227 26.7168C3.23893 26.0514 2.94727 25.3451 2.94727 24.5977C2.94727 23.9505 3.14323 23.3535 3.53516 22.8066C3.92708 22.2507 4.45117 21.7585 5.10742 21.3301C5.77279 20.8926 6.51107 20.5189 7.32227 20.209C8.14258 19.8991 8.98112 19.6621 9.83789 19.498C10.6947 19.334 11.5104 19.252 12.2852 19.252V20.7832C11.5469 20.7923 10.7539 20.888 9.90625 21.0703C9.06771 21.2526 8.27474 21.5033 7.52734 21.8223C6.78906 22.1322 6.18294 22.5059 5.70898 22.9434C5.24414 23.3809 5.01172 23.8594 5.01172 24.3789C5.01172 24.9987 5.27604 25.5592 5.80469 26.0605C6.33333 26.5618 7.07161 26.9948 8.01953 27.3594C8.97656 27.724 10.0931 28.0065 11.3691 28.207C12.6543 28.4076 14.0534 28.5078 15.5664 28.5078C17.0703 28.5078 18.4648 28.4076 19.75 28.207C21.0352 28.0065 22.1517 27.724 23.0996 27.3594C24.0566 26.9948 24.7995 26.5573 25.3281 26.0469C25.8568 25.5456 26.1211 24.9896 26.1211 24.3789C26.1211 23.8594 25.8841 23.3809 25.4102 22.9434C24.9453 22.5059 24.3392 22.1322 23.5918 21.8223C22.8535 21.5033 22.0651 21.2526 21.2266 21.0703C20.388 20.888 19.5951 20.7923 18.8477 20.7832V19.252C19.6224 19.252 20.4382 19.334 21.2949 19.498C22.1517 19.6621 22.9857 19.8991 23.7969 20.209C24.6172 20.5189 25.3555 20.8926 26.0117 21.3301C26.6771 21.7585 27.2012 22.2507 27.584 22.8066C27.9759 23.3535 28.1719 23.9505 28.1719 24.5977C28.1719 25.3451 27.8802 26.0514 27.2969 26.7168C26.7227 27.3913 25.8841 27.9837 24.7812 28.4941C23.6875 29.0046 22.3613 29.4056 20.8027 29.6973C19.2533 29.998 17.5078 30.1484 15.5664 30.1484Z" fill="white"/>
</g>
<defs>
<clipPath id="clip0_3750_30444">
<rect width="32" height="32" fill="white"/>
</clipPath>
</defs>
</svg>
