<svg width="32" height="32" viewBox="0 0 32 32" fill="none" xmlns="http://www.w3.org/2000/svg">
<g clip-path="url(#clip0_3045_8196)">
<path d="M16.4688 31.3906C14.3021 31.3906 12.2708 30.9844 10.375 30.1719C8.47917 29.3594 6.8125 28.2344 5.375 26.7969C3.94792 25.3594 2.82812 23.6979 2.01562 21.8125C1.20312 19.9167 0.796875 17.8854 0.796875 15.7188C0.796875 13.5521 1.20312 11.526 2.01562 9.64062C2.82812 7.74479 3.94792 6.07812 5.375 4.64062C6.8125 3.19271 8.47917 2.06771 10.375 1.26562C12.2708 0.453125 14.3021 0.046875 16.4688 0.046875C18.625 0.046875 20.651 0.453125 22.5469 1.26562C24.4427 2.06771 26.1042 3.19271 27.5312 4.64062C28.9688 6.07812 30.0938 7.74479 30.9062 9.64062C31.7292 11.526 32.1406 13.5521 32.1406 15.7188C32.1406 17.8854 31.7292 19.9167 30.9062 21.8125C30.0938 23.6979 28.9688 25.3594 27.5312 26.7969C26.1042 28.2344 24.4427 29.3594 22.5469 30.1719C20.651 30.9844 18.625 31.3906 16.4688 31.3906ZM16.4688 29.375C18.3542 29.375 20.1198 29.0208 21.7656 28.3125C23.4219 27.6042 24.875 26.625 26.125 25.375C27.375 24.125 28.3542 22.6771 29.0625 21.0312C29.7708 19.375 30.125 17.6042 30.125 15.7188C30.125 13.8333 29.7708 12.0625 29.0625 10.4062C28.3542 8.75 27.375 7.30208 26.125 6.0625C24.875 4.8125 23.4219 3.83333 21.7656 3.125C20.1198 2.41667 18.3542 2.0625 16.4688 2.0625C14.5833 2.0625 12.8125 2.41667 11.1562 3.125C9.51042 3.83333 8.0625 4.8125 6.8125 6.0625C5.5625 7.30208 4.58333 8.75 3.875 10.4062C3.16667 12.0625 2.8125 13.8333 2.8125 15.7188C2.8125 17.6042 3.16667 19.375 3.875 21.0312C4.58333 22.6771 5.5625 24.125 6.8125 25.375C8.0625 26.625 9.51042 27.6042 11.1562 28.3125C12.8125 29.0208 14.5833 29.375 16.4688 29.375ZM13.1562 9.60938C13.1562 8.99479 13.3021 8.44271 13.5938 7.95312C13.8958 7.45312 14.2969 7.05208 14.7969 6.75C15.2969 6.44792 15.849 6.29688 16.4531 6.29688C17.0677 6.29688 17.625 6.44792 18.125 6.75C18.625 7.05208 19.0208 7.45312 19.3125 7.95312C19.6146 8.44271 19.7656 8.99479 19.7656 9.60938C19.7656 10.3698 19.5312 11.0469 19.0625 11.6406C18.5938 12.224 18 12.6042 17.2812 12.7812V21.8125C17.2812 22.4896 17.25 23.099 17.1875 23.6406C17.125 24.1719 17.0312 24.599 16.9062 24.9219C16.7917 25.2344 16.6406 25.3906 16.4531 25.3906C16.276 25.3906 16.125 25.2344 16 24.9219C15.875 24.599 15.7812 24.1667 15.7188 23.625C15.6562 23.0833 15.625 22.4792 15.625 21.8125V12.7812C14.9167 12.5938 14.3281 12.2083 13.8594 11.625C13.3906 11.0417 13.1562 10.3698 13.1562 9.60938ZM14.5156 8.75C14.526 9.04167 14.6354 9.29688 14.8438 9.51562C15.0625 9.72396 15.3177 9.82812 15.6094 9.82812C15.901 9.82812 16.151 9.72396 16.3594 9.51562C16.5677 9.29688 16.6719 9.04167 16.6719 8.75C16.6823 8.45833 16.5781 8.20312 16.3594 7.98438C16.151 7.76562 15.901 7.65625 15.6094 7.65625C15.3177 7.65625 15.0625 7.76562 14.8438 7.98438C14.625 8.20312 14.5156 8.45833 14.5156 8.75Z" fill="white"/>
</g>
<defs>
<clipPath id="clip0_3045_8196">
<rect width="32" height="32" fill="white"/>
</clipPath>
</defs>
</svg>
